<?xml version="1.0" encoding="UTF-8" standalone="no"?><svg xmlns="http://www.w3.org/2000/svg" xmlns:xlink="http://www.w3.org/1999/xlink" contentScriptType="application/ecmascript" contentStyleType="text/css" height="437px" preserveAspectRatio="none" style="width:653px;height:437px;" version="1.1" viewBox="0 0 653 437" width="653px" zoomAndPan="magnify"><defs><filter height="300%" id="fyhs0iq6eeqe7" width="300%" x="-1" y="-1"><feGaussianBlur result="blurOut" stdDeviation="2.0"/><feColorMatrix in="blurOut" result="blurOut2" type="matrix" values="0 0 0 0 0 0 0 0 0 0 0 0 0 0 0 0 0 0 .4 0"/><feOffset dx="4.0" dy="4.0" in="blurOut2" result="blurOut3"/><feBlend in="SourceGraphic" in2="blurOut3" mode="normal"/></filter></defs><g><!--MD5=[d40932010816485ec57b44b6eea2392a]
class Observer--><rect fill="#FEFECE" filter="url(#fyhs0iq6eeqe7)" height="60.8047" id="Observer" style="stroke: #A80036; stroke-width: 1.5;" width="170" x="280" y="366"/><ellipse cx="333.75" cy="382" fill="#B4A7E5" rx="11" ry="11" style="stroke: #A80036; stroke-width: 1.0;"/><path d="M334.7031,378.7813 L336.4219,378.7813 C336.8125,378.7813 337,378.75 337.125,378.6719 C337.3906,378.5156 337.5313,378.2344 337.5313,377.9375 C337.5313,377.6719 337.4219,377.4063 337.1875,377.2344 C337.0156,377.125 336.875,377.0938 336.4219,377.0938 L331.2813,377.0938 C330.8438,377.0938 330.7188,377.1094 330.5625,377.2031 C330.3125,377.3594 330.1563,377.6563 330.1563,377.9375 C330.1563,378.2188 330.2969,378.4688 330.5156,378.6406 C330.6719,378.75 330.8594,378.7813 331.2813,378.7813 L333,378.7813 L333,385.2969 L331.2813,385.2969 C330.8438,385.2969 330.7188,385.3125 330.5625,385.4219 C330.3125,385.5781 330.1563,385.8594 330.1563,386.1563 C330.1563,386.4063 330.2969,386.6719 330.5156,386.8281 C330.6719,386.9531 330.875,387 331.2813,387 L336.4219,387 C337.1719,387 337.5313,386.7188 337.5313,386.1563 C337.5313,385.875 337.4219,385.625 337.1875,385.4531 C337.0156,385.3281 336.875,385.2969 336.4219,385.2969 L334.7031,385.2969 L334.7031,378.7813 Z "/><text fill="#000000" font-family="sans-serif" font-size="12" font-style="italic" lengthAdjust="spacingAndGlyphs" textLength="54" x="354.25" y="386.1543">Observer</text><line style="stroke: #A80036; stroke-width: 1.5;" x1="281" x2="449" y1="398" y2="398"/><line style="stroke: #A80036; stroke-width: 1.5;" x1="281" x2="449" y1="406" y2="406"/><text fill="#000000" font-family="sans-serif" font-size="11" lengthAdjust="spacingAndGlyphs" textLength="158" x="286" y="420.2104">+update(usbA: usbB: usbC:)</text><!--MD5=[d0da0a299942266ebd64acf2b2e95fa4]
class Subject--><rect fill="#FEFECE" filter="url(#fyhs0iq6eeqe7)" height="86.4141" id="Subject" style="stroke: #A80036; stroke-width: 1.5;" width="141" x="258.5" y="219"/><ellipse cx="301.85" cy="235" fill="#B4A7E5" rx="11" ry="11" style="stroke: #A80036; stroke-width: 1.0;"/><path d="M302.8031,231.7813 L304.5219,231.7813 C304.9125,231.7813 305.1,231.75 305.225,231.6719 C305.4906,231.5156 305.6313,231.2344 305.6313,230.9375 C305.6313,230.6719 305.5219,230.4063 305.2875,230.2344 C305.1156,230.125 304.975,230.0938 304.5219,230.0938 L299.3813,230.0938 C298.9438,230.0938 298.8188,230.1094 298.6625,230.2031 C298.4125,230.3594 298.2563,230.6563 298.2563,230.9375 C298.2563,231.2188 298.3969,231.4688 298.6156,231.6406 C298.7719,231.75 298.9594,231.7813 299.3813,231.7813 L301.1,231.7813 L301.1,238.2969 L299.3813,238.2969 C298.9438,238.2969 298.8188,238.3125 298.6625,238.4219 C298.4125,238.5781 298.2563,238.8594 298.2563,239.1563 C298.2563,239.4063 298.3969,239.6719 298.6156,239.8281 C298.7719,239.9531 298.975,240 299.3813,240 L304.5219,240 C305.2719,240 305.6313,239.7188 305.6313,239.1563 C305.6313,238.875 305.5219,238.625 305.2875,238.4531 C305.1156,238.3281 304.975,238.2969 304.5219,238.2969 L302.8031,238.2969 L302.8031,231.7813 Z "/><text fill="#000000" font-family="sans-serif" font-size="12" font-style="italic" lengthAdjust="spacingAndGlyphs" textLength="46" x="322.15" y="239.1543">Subject</text><line style="stroke: #A80036; stroke-width: 1.5;" x1="259.5" x2="398.5" y1="251" y2="251"/><line style="stroke: #A80036; stroke-width: 1.5;" x1="259.5" x2="398.5" y1="259" y2="259"/><text fill="#000000" font-family="sans-serif" font-size="11" lengthAdjust="spacingAndGlyphs" textLength="115" x="264.5" y="273.2104">+register(observer:)</text><text fill="#000000" font-family="sans-serif" font-size="11" lengthAdjust="spacingAndGlyphs" textLength="129" x="264.5" y="286.0151">+unregister(observer:)</text><text fill="#000000" font-family="sans-serif" font-size="11" lengthAdjust="spacingAndGlyphs" textLength="49" x="264.5" y="298.8198">+notify()</text><!--MD5=[1d2727080b91332885f19c8818aa3646]
class USBManager--><rect fill="#FEFECE" filter="url(#fyhs0iq6eeqe7)" height="150.4375" id="USBManager" style="stroke: #A80036; stroke-width: 1.5;" width="178" x="335" y="8"/><ellipse cx="381.25" cy="24" fill="#ADD1B2" rx="11" ry="11" style="stroke: #A80036; stroke-width: 1.0;"/><path d="M383.5938,19.6719 C382.6563,19.2344 382.0625,19.0938 381.1875,19.0938 C378.5625,19.0938 376.5625,21.1719 376.5625,23.8906 L376.5625,25.0156 C376.5625,27.5938 378.6719,29.4844 381.5625,29.4844 C382.7813,29.4844 383.9375,29.1875 384.6875,28.6406 C385.2656,28.2344 385.5938,27.7813 385.5938,27.3906 C385.5938,26.9375 385.2031,26.5469 384.7344,26.5469 C384.5156,26.5469 384.3125,26.625 384.125,26.8125 C383.6719,27.2969 383.6719,27.2969 383.4844,27.3906 C383.0625,27.6563 382.375,27.7813 381.6094,27.7813 C379.5625,27.7813 378.2656,26.6875 378.2656,24.9844 L378.2656,23.8906 C378.2656,22.1094 379.5156,20.7969 381.25,20.7969 C381.8281,20.7969 382.4375,20.9531 382.9063,21.2031 C383.3906,21.4844 383.5625,21.7031 383.6563,22.1094 C383.7188,22.5156 383.75,22.6406 383.8906,22.7656 C384.0313,22.9063 384.2656,23.0156 384.4844,23.0156 C384.75,23.0156 385.0156,22.875 385.1875,22.6563 C385.2969,22.5 385.3281,22.3125 385.3281,21.8906 L385.3281,20.4688 C385.3281,20.0313 385.3125,19.9063 385.2188,19.75 C385.0625,19.4844 384.7813,19.3438 384.4844,19.3438 C384.1875,19.3438 383.9844,19.4375 383.7656,19.75 L383.5938,19.6719 Z "/><text fill="#000000" font-family="sans-serif" font-size="12" lengthAdjust="spacingAndGlyphs" textLength="77" x="401.75" y="28.1543">USBManager</text><line style="stroke: #A80036; stroke-width: 1.5;" x1="336" x2="512" y1="40" y2="40"/><text fill="#000000" font-family="sans-serif" font-size="11" lengthAdjust="spacingAndGlyphs" textLength="129" x="341" y="54.2104">-observers: [Observer]</text><text fill="#000000" font-family="sans-serif" font-size="11" lengthAdjust="spacingAndGlyphs" textLength="126" x="341" y="67.0151">-isConnect_usbA: Bool</text><text fill="#000000" font-family="sans-serif" font-size="11" lengthAdjust="spacingAndGlyphs" textLength="126" x="341" y="79.8198">-isConnect_usbB: Bool</text><text fill="#000000" font-family="sans-serif" font-size="11" lengthAdjust="spacingAndGlyphs" textLength="126" x="341" y="92.6245">-isConnect_usbC: Bool</text><line style="stroke: #A80036; stroke-width: 1.5;" x1="336" x2="512" y1="99.2188" y2="99.2188"/><text fill="#000000" font-family="sans-serif" font-size="11" lengthAdjust="spacingAndGlyphs" textLength="115" x="341" y="113.4292">+register(observer:)</text><text fill="#000000" font-family="sans-serif" font-size="11" lengthAdjust="spacingAndGlyphs" textLength="129" x="341" y="126.2339">+unregister(observer:)</text><text fill="#000000" font-family="sans-serif" font-size="11" lengthAdjust="spacingAndGlyphs" textLength="49" x="341" y="139.0386">+notify()</text><text fill="#000000" font-family="sans-serif" font-size="11" lengthAdjust="spacingAndGlyphs" textLength="166" x="341" y="151.8433">+changeUSBState(usbType:)</text><!--MD5=[056bcff493490bf33ed6ecf7c38cd224]
class USBObserver--><rect fill="#FEFECE" filter="url(#fyhs0iq6eeqe7)" height="73.6094" id="USBObserver" style="stroke: #A80036; stroke-width: 1.5;" width="170" x="6" y="225"/><ellipse cx="45.75" cy="241" fill="#ADD1B2" rx="11" ry="11" style="stroke: #A80036; stroke-width: 1.0;"/><path d="M48.0938,236.6719 C47.1563,236.2344 46.5625,236.0938 45.6875,236.0938 C43.0625,236.0938 41.0625,238.1719 41.0625,240.8906 L41.0625,242.0156 C41.0625,244.5938 43.1719,246.4844 46.0625,246.4844 C47.2813,246.4844 48.4375,246.1875 49.1875,245.6406 C49.7656,245.2344 50.0938,244.7813 50.0938,244.3906 C50.0938,243.9375 49.7031,243.5469 49.2344,243.5469 C49.0156,243.5469 48.8125,243.625 48.625,243.8125 C48.1719,244.2969 48.1719,244.2969 47.9844,244.3906 C47.5625,244.6563 46.875,244.7813 46.1094,244.7813 C44.0625,244.7813 42.7656,243.6875 42.7656,241.9844 L42.7656,240.8906 C42.7656,239.1094 44.0156,237.7969 45.75,237.7969 C46.3281,237.7969 46.9375,237.9531 47.4063,238.2031 C47.8906,238.4844 48.0625,238.7031 48.1563,239.1094 C48.2188,239.5156 48.25,239.6406 48.3906,239.7656 C48.5313,239.9063 48.7656,240.0156 48.9844,240.0156 C49.25,240.0156 49.5156,239.875 49.6875,239.6563 C49.7969,239.5 49.8281,239.3125 49.8281,238.8906 L49.8281,237.4688 C49.8281,237.0313 49.8125,236.9063 49.7188,236.75 C49.5625,236.4844 49.2813,236.3438 48.9844,236.3438 C48.6875,236.3438 48.4844,236.4375 48.2656,236.75 L48.0938,236.6719 Z "/><text fill="#000000" font-family="sans-serif" font-size="12" lengthAdjust="spacingAndGlyphs" textLength="83" x="65.25" y="245.1543">USBObserver</text><line style="stroke: #A80036; stroke-width: 1.5;" x1="7" x2="175" y1="257" y2="257"/><line style="stroke: #A80036; stroke-width: 1.5;" x1="7" x2="175" y1="265" y2="265"/><text fill="#000000" font-family="sans-serif" font-size="11" lengthAdjust="spacingAndGlyphs" textLength="125" x="12" y="279.2104">+init(subject: Subject)</text><text fill="#000000" font-family="sans-serif" font-size="11" lengthAdjust="spacingAndGlyphs" textLength="158" x="12" y="292.0151">+update(usbA: usbB: usbC:)</text><!--MD5=[4e02ed6bc96e4941031a8617eaa621b2]
class USBTypes--><rect fill="#FEFECE" filter="url(#fyhs0iq6eeqe7)" height="86.4141" id="USBTypes" style="stroke: #A80036; stroke-width: 1.5;" width="94" x="548" y="40"/><ellipse cx="563" cy="56" fill="#EB937F" rx="11" ry="11" style="stroke: #A80036; stroke-width: 1.0;"/><path d="M561.7969,56.875 L563.25,56.875 L563.25,56.9844 C563.25,57.3906 563.2813,57.5469 563.3594,57.7031 C563.5156,57.9531 563.7969,58.1094 564.0938,58.1094 C564.3438,58.1094 564.6094,57.9688 564.7656,57.75 C564.8906,57.5938 564.9219,57.4375 564.9219,56.9844 L564.9219,55.0625 C564.9219,54.9063 564.9219,54.8594 564.9063,54.7031 C564.8438,54.2344 564.5313,53.9219 564.0781,53.9219 C563.8281,53.9219 563.5625,54.0625 563.3906,54.2813 C563.2813,54.4531 563.25,54.6094 563.25,55.0625 L563.25,55.1875 L561.7969,55.1875 L561.7969,52.7813 L565.7813,52.7813 L565.7813,53.6406 C565.7813,54.0469 565.8125,54.2188 565.8906,54.375 C566.0625,54.625 566.3438,54.7813 566.625,54.7813 C566.8906,54.7813 567.1563,54.6406 567.3281,54.4219 C567.4375,54.25 567.4688,54.1094 567.4688,53.6406 L567.4688,51.0938 L559.8438,51.0938 C559.4063,51.0938 559.2813,51.1094 559.125,51.2031 C558.875,51.3594 558.7188,51.6563 558.7188,51.9375 C558.7188,52.2188 558.8594,52.4688 559.0781,52.6406 C559.2344,52.75 559.4219,52.7813 559.8438,52.7813 L560.0938,52.7813 L560.0938,59.2969 L559.8438,59.2969 C559.4375,59.2969 559.2813,59.3125 559.125,59.4219 C558.875,59.5938 558.7188,59.8594 558.7188,60.1563 C558.7188,60.4219 558.8594,60.6719 559.0781,60.8281 C559.2188,60.9531 559.4531,61 559.8438,61 L567.8438,61 L567.8438,58.4219 C567.8438,57.9844 567.8125,57.8438 567.7344,57.6875 C567.5625,57.4375 567.2813,57.2813 567,57.2813 C566.7344,57.2813 566.4688,57.3906 566.2969,57.6406 C566.1875,57.7969 566.1563,57.9375 566.1563,58.4219 L566.1563,59.2969 L561.7969,59.2969 L561.7969,56.875 Z "/><text fill="#000000" font-family="sans-serif" font-size="12" lengthAdjust="spacingAndGlyphs" textLength="62" x="577" y="60.1543">USBTypes</text><line style="stroke: #A80036; stroke-width: 1.5;" x1="549" x2="641" y1="72" y2="72"/><text fill="#000000" font-family="sans-serif" font-size="11" lengthAdjust="spacingAndGlyphs" textLength="28" x="554" y="86.2104">usbA</text><text fill="#000000" font-family="sans-serif" font-size="11" lengthAdjust="spacingAndGlyphs" textLength="28" x="554" y="99.0151">usbB</text><text fill="#000000" font-family="sans-serif" font-size="11" lengthAdjust="spacingAndGlyphs" textLength="28" x="554" y="111.8198">usbC</text><line style="stroke: #A80036; stroke-width: 1.5;" x1="549" x2="641" y1="118.4141" y2="118.4141"/><!--MD5=[6b4ff5f030d07dfbf814c542e50cdc01]
link USBManager to Subject--><path d="M384.262,158.038 C376.642,172.236 368.747,186.945 361.392,200.648 " fill="none" id="USBManager-&gt;Subject" style="stroke: #A80036; stroke-width: 1.0; stroke-dasharray: 7.0,7.0;"/><polygon fill="none" points="367.4,204.257,351.774,218.569,355.064,197.636,367.4,204.257" style="stroke: #A80036; stroke-width: 1.0;"/><!--MD5=[50e3c7b49763f13075814ba06e01324b]
link USBObserver to Subject--><path d="M176.251,262 C201.405,262 228.752,262 253.264,262 " fill="none" id="USBObserver-&gt;Subject" style="stroke: #A80036; stroke-width: 1.0;"/><polygon fill="#A80036" points="258.45,262,249.45,258,253.45,262,249.45,266,258.45,262" style="stroke: #A80036; stroke-width: 1.0;"/><text fill="#000000" font-family="sans-serif" font-size="13" lengthAdjust="spacingAndGlyphs" textLength="46" x="194.25" y="255.0669">«uses»</text><!--MD5=[8f5ba25e485f09caed15e0e63868f2b3]
link USBObserver to Observer--><path d="M165.51,299.031 C202.74,317.035 247.806,338.8276 285.678,357.1416 " fill="none" id="USBObserver-&gt;Observer" style="stroke: #A80036; stroke-width: 1.0; stroke-dasharray: 7.0,7.0;"/><polygon fill="none" points="288.947,350.9469,303.905,365.9557,282.852,363.5506,288.947,350.9469" style="stroke: #A80036; stroke-width: 1.0;"/><!--MD5=[3eb445b13664017334c957b3fddb7b6f]
link USBManager to Observer--><path d="M430.525,158.033 C432.195,201.618 430.523,257.363 417,305 C411.346,324.917 400.381,345.0835 389.971,361.3087 " fill="none" id="USBManager-&gt;Observer" style="stroke: #A80036; stroke-width: 1.0;"/><polygon fill="#A80036" points="387.055,365.777,395.3237,360.4265,389.7878,361.5899,388.6244,356.054,387.055,365.777" style="stroke: #A80036; stroke-width: 1.0;"/><text fill="#000000" font-family="sans-serif" font-size="13" lengthAdjust="spacingAndGlyphs" textLength="46" x="431" y="266.5669">«uses»</text><!--MD5=[c9ea127f578ea3ff7593583c8cc45944]
link USBManager to USBTypes--><path d="M513.174,83 C524.681,83 536.187,83 547.694,83 " fill="none" id="USBManager-USBTypes" style="stroke: #A80036; stroke-width: 1.0;"/><!--MD5=[7ea9ba0e1b47fce526995883ba2b4bad]
@startuml
skinparam classAttributeIconSize 0

interface "Observer" {
  +update(usbA: usbB: usbC:)
}

interface "Subject" {
  +register(observer:)
  +unregister(observer:)
  +notify()
}

Class "USBManager" {
  -observers: [Observer]
  -isConnect_usbA: Bool
  -isConnect_usbB: Bool
  -isConnect_usbC: Bool
  +register(observer:)
  +unregister(observer:)
  +notify()
  +changeUSBState(usbType:)
}

Class "USBObserver" {
  +init(subject: Subject)
  +update(usbA: usbB: usbC:)
}

enum "USBTypes" {
  usbA
  usbB
  usbC
}

USBManager ..|> Subject 
USBObserver -> Subject : <<uses>>
USBObserver ..|> Observer 
USBManager -> Observer : <<uses>>

USBManager - USBTypes
@enduml

PlantUML version 1.2020.09(Sun May 10 10:51:06 UTC 2020)
(GPL source distribution)
Java Runtime: Java(TM) SE Runtime Environment
JVM: Java HotSpot(TM) 64-Bit Server VM
Java Version: 14.0.1+7
Operating System: Linux
Default Encoding: UTF-8
Language: en
Country: US
--></g></svg>